<svg width="28" height="28" viewBox="0 0 28 28" fill="none" xmlns="http://www.w3.org/2000/svg">
<g clip-path="url(#clip0_2204_1425)">
<path d="M24.4026 19.2396C23.1126 18.8873 21.3419 18.2146 20.232 17.0102C18.6069 15.2467 18.9627 12.646 18.9661 12.6225L19.0277 12.2165L17.6246 10.791L21.117 5.37859L12.6881 0L8.93707 5.81478C7.07206 6.24567 5.45555 7.38982 4.24472 9.14193C3.61696 10.0502 3.24187 10.9144 3.05451 11.414C2.15745 11.743 1.46941 12.379 1.09131 13.2402C0.651283 14.2425 0.667475 15.4623 1.29064 16.4923L9.50165 23.6948C12.6666 26.471 16.7282 28 20.9384 28C23.1155 28 25.1298 27.2779 27.2118 25.6004V22.9197C27.2118 21.2046 26.0567 19.6913 24.4026 19.2396ZM13.1818 2.26182L18.8438 5.87474L16.0828 10.1538C15.4425 10.2489 13.9186 10.3822 12.545 9.79365C10.6848 8.99653 10.4281 7.38785 10.3185 6.7009C10.3185 6.70085 10.3185 6.70079 10.3185 6.70074L13.1818 2.26182ZM9.7576 9.65673C10.2253 10.2792 10.904 10.8759 11.8987 11.3021C13.6268 12.0427 15.4568 11.905 16.2974 11.7819L17.3023 12.8029C17.2847 13.0886 17.277 13.5004 17.3171 13.9861L15.6966 14.1968L15.9081 15.8242L17.6172 15.602C17.752 16.0541 17.9389 16.5205 18.196 16.978L16.9282 17.8541L17.8613 19.2042L19.1853 18.2892C20.5565 19.6734 22.5297 20.4294 23.9703 20.8228C24.5683 20.9861 25.0514 21.3932 25.325 21.9185C22.5724 22.973 19.8693 23.0079 17.286 22.0211C14.5551 20.9778 12.5222 19.0085 11.2977 17.5401C10.6041 16.7084 10.0619 15.9696 9.5836 15.3178C9.36796 15.0239 9.16261 14.7441 8.95999 14.4787L9.7576 9.65673ZM5.62305 10.0343C6.40037 8.92361 7.33753 8.1417 8.41849 7.69665L7.55546 12.914C6.84893 12.2947 6.00536 11.8168 4.80011 11.4868C4.98342 11.0805 5.25223 10.5641 5.62305 10.0343ZM25.5708 24.8167C24.2385 25.8138 22.608 26.3589 20.9384 26.3589C17.1266 26.3589 13.4493 24.9746 10.5838 22.4611L2.59589 15.4543C2.38151 14.9875 2.37812 14.3915 2.59392 13.8999C2.74331 13.5597 3.06031 13.1259 3.72614 12.9192C6.13993 13.4004 6.81807 14.3229 8.26057 16.2885C8.75305 16.9596 9.31123 17.7202 10.0374 18.591C11.3871 20.2095 13.6387 22.3843 16.7004 23.5539C18.1436 24.1052 19.6156 24.3807 21.1077 24.3807C22.579 24.3807 24.0697 24.1127 25.5708 23.5772V24.8167Z" fill="#14A0FF"/>
</g>
<defs>
<clipPath id="clip0_2204_1425">
<rect width="28" height="28" fill="white"/>
</clipPath>
</defs>
</svg>
