<svg width="28" height="28" viewBox="0 0 28 28" fill="none" xmlns="http://www.w3.org/2000/svg">
<g clip-path="url(#clip0_2219_4725)">
<path d="M25.6547 18.6333C25.1416 14.7514 23.7048 11.9508 22.4846 10.1897C22.8868 9.28938 23.1109 8.29276 23.1109 7.24467C23.1109 3.24997 19.8609 0 15.8663 0C11.8716 0 8.62164 3.24997 8.62164 7.24467C8.62164 11.2394 11.8716 14.4893 15.8663 14.4893C16.4723 14.4893 17.0611 14.4141 17.6241 14.2732L17.7119 17.7739C16.6535 17.0122 15.2093 16.3488 13.2809 16.1388C11.7172 15.9684 10.4153 16.0954 9.35598 16.3595C8.24129 14.8632 6.69834 13.8638 4.86647 13.4586C3.37673 13.1292 2.20844 13.3098 2.15955 13.3177L2.41603 14.9381C2.42549 14.9366 3.3741 14.7976 4.57072 15.0737C5.83548 15.3655 6.89182 15.9928 7.72132 16.9422C6.36835 17.5879 5.71604 18.362 5.66616 18.4229L6.9353 19.4626L6.93081 19.468C6.93541 19.4626 7.40304 18.9197 8.38681 18.4428C9.71298 17.7997 11.3 17.5732 13.1033 17.7697C15.1267 17.99 16.7501 18.8031 17.9285 20.1865C18.8222 21.2354 19.1199 22.2423 19.1218 22.2487L20.7022 21.8081C20.6882 21.7581 20.3647 20.6267 19.3934 19.3873L19.2496 13.649C20.1399 13.1767 20.9206 12.5245 21.5428 11.7407C23.1318 14.2814 23.77 16.9302 24.0216 18.7976C24.2556 20.5339 24.2047 21.9022 24.164 22.4827C22.7562 23.67 21.0744 24.5418 19.1601 25.076C17.5173 25.5345 15.6986 25.7473 13.7556 25.7105C10.4074 25.6459 7.82397 24.848 7.79887 24.8401L7.37411 24.7063L7.03051 24.9897C4.97163 26.6876 2.44135 26.3259 2.41926 26.3225L2.1596 27.9424C2.201 27.9491 2.53629 27.9999 3.0585 27.9999C4.13355 27.9999 6.0008 27.7845 7.72668 26.5253C8.62766 26.7671 10.8799 27.2905 13.6762 27.3499C15.7859 27.3952 17.7709 27.1639 19.5741 26.6638C21.8536 26.0317 23.8464 24.9667 25.4971 23.4985L25.7282 23.2929L25.766 22.986C25.7751 22.9119 25.9862 21.1413 25.6547 18.6333ZM15.8663 12.8487C12.7762 12.8487 10.2623 10.3347 10.2623 7.24467C10.2623 4.15461 12.7761 1.64062 15.8663 1.64062C18.9564 1.64062 21.4703 4.15461 21.4703 7.24467C21.4703 10.3347 18.9563 12.8487 15.8663 12.8487Z" fill="#14A0FF"/>
<path d="M15.8663 3.66968C13.8952 3.66968 12.2915 5.27333 12.2915 7.24449C12.2915 9.21559 13.8952 10.8192 15.8663 10.8192C17.8374 10.8192 19.4411 9.21559 19.4411 7.24449C19.4411 5.27328 17.8374 3.66968 15.8663 3.66968ZM15.8663 9.17868C14.7997 9.17868 13.9321 8.31101 13.9321 7.24449C13.9321 6.17792 14.7997 5.31025 15.8663 5.31025C16.9328 5.31025 17.8005 6.17792 17.8005 7.24449C17.8004 8.31101 16.9328 9.17868 15.8663 9.17868Z" fill="#14A0FF"/>
</g>
<defs>
<clipPath id="clip0_2219_4725">
<rect width="28" height="28" fill="white"/>
</clipPath>
</defs>
</svg>
