<svg width="29" height="29" viewBox="0 0 29 29" fill="none" xmlns="http://www.w3.org/2000/svg">
<g clip-path="url(#clip0_2203_526)">
<path d="M26.2272 7.9306L26.2263 7.90882C26.2142 7.63986 26.2061 7.35532 26.2011 7.03873C26.1783 5.49488 24.951 4.21785 23.407 4.13154C20.1877 3.95189 17.6973 2.90215 15.5694 0.828085L15.5512 0.810782C14.8571 0.174401 13.8102 0.174401 13.1159 0.810782L13.0978 0.828085C10.9699 2.90215 8.47945 3.95189 5.26016 4.13176C3.71631 4.21785 2.48884 5.49488 2.46598 7.03894C2.46128 7.3534 2.45295 7.63794 2.44077 7.90882L2.43949 7.95944C2.3769 11.2422 2.29914 15.3277 3.6659 19.036C4.41742 21.0752 5.5556 22.8479 7.04861 24.305C8.74904 25.9644 10.9763 27.2818 13.6683 28.2205C13.7559 28.251 13.8469 28.2758 13.9396 28.2944C14.0704 28.3204 14.202 28.3335 14.3336 28.3335C14.4652 28.3335 14.597 28.3204 14.7275 28.2944C14.8202 28.2758 14.9118 28.2508 14.9998 28.22C17.6887 27.2797 19.9136 25.9616 21.6125 24.3024C23.1049 22.8449 24.2431 21.0718 24.9952 19.0321C26.3671 15.3128 26.2896 11.2195 26.2272 7.9306ZM23.4537 18.4637C22.0122 22.3721 19.0696 25.0563 14.4577 26.6691C14.4412 26.6747 14.4237 26.6796 14.4056 26.6832C14.3579 26.6926 14.3094 26.6926 14.2611 26.683C14.2432 26.6794 14.2257 26.6747 14.2094 26.6691C9.59264 25.0593 6.64806 22.3766 5.20761 18.468C3.94788 15.0498 4.01923 11.2994 4.08225 7.99085L4.08267 7.97247C4.09549 7.68814 4.10404 7.39035 4.10873 7.06308C4.11899 6.37757 4.66501 5.8104 5.3518 5.77216C7.17358 5.67048 8.77404 5.31843 10.2446 4.69593C11.7133 4.07429 13.0176 3.19801 14.2319 2.01711C14.2936 1.96498 14.3737 1.96477 14.4352 2.01711C15.6497 3.19801 16.9541 4.07429 18.4225 4.69593C19.8931 5.31843 21.4935 5.67048 23.3155 5.77216C24.0023 5.8104 24.5483 6.37757 24.5584 7.0633C24.5633 7.39228 24.5718 7.69007 24.5847 7.97247C24.6475 11.2849 24.7171 15.0383 23.4537 18.4637Z" fill="#14A0FF"/>
<path d="M14.3331 7.35596C10.4854 7.35596 7.35516 10.4864 7.35516 14.3339C7.35516 18.1817 10.4854 21.3121 14.3331 21.3121C18.1807 21.3121 21.3111 18.1817 21.3111 14.3339C21.3111 10.4864 18.1807 7.35596 14.3331 7.35596ZM14.3331 19.6689C11.3913 19.6689 8.99813 17.2757 8.99813 14.3339C8.99813 11.3921 11.3913 8.99893 14.3331 8.99893C17.2747 8.99893 19.6679 11.3921 19.6679 14.3339C19.6679 17.2757 17.2747 19.6689 14.3331 19.6689Z" fill="#14A0FF"/>
<path d="M16.3386 12.1676L13.0975 15.4086L12.2178 14.5289C11.897 14.2081 11.3768 14.2081 11.056 14.5289C10.7353 14.8498 10.7353 15.37 11.056 15.6906L12.5167 17.1514C12.6771 17.3118 12.8873 17.3919 13.0975 17.3919C13.3077 17.3919 13.518 17.3118 13.6784 17.1514L17.5005 13.3292C17.8212 13.0084 17.8212 12.4882 17.5005 12.1676C17.1797 11.8465 16.6595 11.8465 16.3386 12.1676Z" fill="#14A0FF"/>
</g>
<defs>
<clipPath id="clip0_2203_526">
<rect width="28" height="28" fill="white" transform="translate(0.333344 0.333496)"/>
</clipPath>
</defs>
</svg>
