<svg width="28" height="28" viewBox="0 0 28 28" fill="none" xmlns="http://www.w3.org/2000/svg">
<g clip-path="url(#clip0_2205_1316)">
<path d="M23.1255 8.60666L24.2234 7.50885C24.65 7.08224 24.65 6.39053 24.2234 5.96414C23.7968 5.53754 23.1053 5.53754 22.6786 5.96414L21.5808 7.06195C19.739 5.52728 17.5009 4.60016 15.1134 4.38312V2.18472H16.1693C16.7726 2.18472 17.2616 1.69553 17.2616 1.09225C17.2616 0.488983 16.7726 0 16.1693 0H11.8727C11.2695 0 10.7805 0.488983 10.7805 1.09225C10.7805 1.69553 11.2695 2.18472 11.8727 2.18472H12.9287V4.38312C6.95236 4.92657 2.1875 9.94714 2.1875 16.1664C2.1875 22.7066 7.48001 28 14.0211 28C20.5612 28 25.8546 22.7075 25.8546 16.1664C25.8546 13.3726 24.8924 10.7269 23.1255 8.60666ZM14.0209 25.8153C8.70065 25.8153 4.37201 21.4868 4.37201 16.1664C4.37201 10.8461 8.70065 6.51764 14.0209 6.51764C19.3414 6.51764 23.6699 10.8461 23.6699 16.1664C23.6699 21.4868 19.3414 25.8153 14.0209 25.8153ZM19.0832 11.1043C19.5098 11.5309 19.5098 12.2227 19.0832 12.649L14.7934 16.9388C14.3668 17.3654 13.6751 17.3654 13.2487 16.9388C12.8221 16.5122 12.8221 15.8205 13.2487 15.3941L17.5382 11.1043C17.9648 10.6777 18.6566 10.6777 19.0832 11.1043Z" fill="#14A0FF"/>
</g>
<defs>
<clipPath id="clip0_2205_1316">
<rect width="28" height="28" fill="white"/>
</clipPath>
</defs>
</svg>
