<svg width="28" height="28" viewBox="0 0 28 28" fill="none" xmlns="http://www.w3.org/2000/svg">
<g clip-path="url(#clip0_2218_4481)">
<path d="M9 15H4C1.79395 15 0 16.7939 0 19V24C0 26.2061 1.79395 28 4 28H9C11.2061 28 13 26.2061 13 24V19C13 16.7939 11.2061 15 9 15ZM11 24C11 25.1025 10.1025 26 9 26H4C2.89746 26 2 25.1025 2 24V19C2 17.8975 2.89746 17 4 17H9C10.1025 17 11 17.8975 11 19V24ZM24 0H19C16.7939 0 15 1.79395 15 4V9C15 11.2061 16.7939 13 19 13H24C26.2061 13 28 11.2061 28 9V4C28 1.79395 26.2061 0 24 0ZM26 9C26 10.1025 25.1025 11 24 11H19C17.8975 11 17 10.1025 17 9V4C17 2.89746 17.8975 2 19 2H24C25.1025 2 26 2.89746 26 4V9ZM9 0H4C1.79395 0 0 1.79395 0 4V9C0 11.2061 1.79395 13 4 13H9C11.2061 13 13 11.2061 13 9V4C13 1.79395 11.2061 0 9 0ZM11 9C11 10.1025 10.1025 11 9 11H4C2.89746 11 2 10.1025 2 9V4C2 2.89746 2.89746 2 4 2H9C10.1025 2 11 2.89746 11 4V9Z" fill="#14A0FF"/>
<path d="M28 25C28 25.5527 27.5527 26 27 26H16C15.4473 26 15 25.5527 15 25C15 24.4473 15.4473 24 16 24H27C27.5527 24 28 24.4473 28 25ZM27 20H16C15.4473 20 15 20.4473 15 21C15 21.5527 15.4473 22 16 22H27C27.5527 22 28 21.5527 28 21C28 20.4473 27.5527 20 27 20ZM16 18H27C27.5527 18 28 17.5527 28 17C28 16.4473 27.5527 16 27 16H16C15.4473 16 15 16.4473 15 17C15 17.5527 15.4473 18 16 18Z" fill="#14A0FF"/>
</g>
<defs>
<clipPath id="clip0_2218_4481">
<rect width="28" height="28" fill="white"/>
</clipPath>
</defs>
</svg>
